<?xml version="1.0" encoding="UTF-8"?> <!-- Generator: Adobe Illustrator 15.0.0, SVG Export Plug-In . SVG Version: 6.00 Build 0) --> <svg xmlns="http://www.w3.org/2000/svg" xmlns:xlink="http://www.w3.org/1999/xlink" id="Layer_1" x="0px" y="0px" width="221.333px" height="262.667px" viewBox="0 0 221.333 262.667" xml:space="preserve"> <path fill="#313C6B" d="M141.1,6.126c1.291,0.58,2.611,1.11,3.801,1.88c0.67,2.84,0.279,5.8-0.1,8.65 c-0.961,5.76-1.361,11.61-2.83,17.27c-1.201,3.1,2.129,5.77,1.148,8.88c-1.309,7.37-2.809,14.76-2.568,22.3 c-0.441-1.8-0.891-3.61-1.33-5.41c-0.721,4.18-1.48,8.46-0.76,12.7c-0.73-0.17-2.201-0.51-2.941-0.68 c0.02,3.36-0.02,6.72,0.281,10.07c1.539-2.91,2.41-6.11,2.66-9.39c1.359,3.46,3.328,6.63,5.26,9.8c-5.32,3.2-9.861,7.7-13.211,12.92 c-0.6-6.54,0.551-13.02,0.801-19.54c-3.031,6.35-4.051,13.42-6.15,20.1c-0.301-1.53-0.59-3.07-0.891-4.6 c-1.23-0.01-2.449-0.04-3.68-0.06c-0.49,1.62-0.99,3.24-1.43,4.88c-0.211-4.65,0.48-9.28,0.391-13.92 c-0.771-0.95-1.59-1.86-2.441-2.73c-2.43,7.47-3.79,15.32-7.04,22.51c-1.86,2.15-4.14,3.89-6.03,6c-4.25-1.05-8.95-2.85-12.91-0.01 c-1.25-1.13-2.49-2.27-3.74-3.4c-1.48,4.05-2.4,8.26-3.43,12.44c-1.36,0.16-2.72,0.32-4.08,0.5c-0.61-1.54-1.19-3.1-1.81-4.64 c-1.63,5.39-6.8,7.93-10.59,11.59c-3.3-4.2-1.78-9.67-1.74-14.53c0.15-6.94,1.94-14.33-1.64-20.78c-2.36,9.32-3.8,18.84-5.9,28.21 c-2.57-8.06,0.38-16.47-1.49-24.63c-1.93,1.08-3.88,2.13-5.77,3.29c0.74-2.8,2.02-5.4,3.29-7.99c0.43,0.69,1.29,2.06,1.72,2.74 c2.7-2.73,5.7-5.62,6.39-9.59c1.25-6.37,3.27-12.68,3.08-19.23c0.55-4.62,1.42-9.29,0.59-13.94c-1.38-6.05,1.15-12.08,1.48-18.12 c0.06-3,0.34-5.98,0.58-8.96c1.31,0.38,2.63,0.76,3.95,1.15c2.61,14.88-1.65,29.79-1.21,44.71c1.45,0.68,2.91,1.34,4.36,2.01 c-0.09,3.7-0.4,7.39-0.58,11.08c-0.2,4.46-1.54,8.83-1.15,13.32c0.04,2.41,0.03,4.82,0.03,7.23c1.11,0.09,2.23,0.17,3.34,0.26 c0.86-2.14,1.75-4.25,2.62-6.38c2.14,1.39,4.28,2.78,6.42,4.18c2.39-3.19,4.55-6.54,6.44-10.06c-1.44-0.54-2.87-1.08-4.3-1.62 l-0.89-1.04c2.41-0.24,4.74,0.46,7.07,0.94c0.67-3.25,0.07-6.48-0.98-9.58c-0.72,2.16-1.47,4.3-2.2,6.46 c-0.95,0.08-2.85,0.26-3.8,0.35c0.09-5.18,3.69-9.27,4.72-14.2c0.5-3.82,3.8-6.28,5.04-9.81c1.14-3.29,4.1-5.33,6.29-7.9 c-0.95,3.26-2.59,6.39-2.76,9.82c0.54,1.3,1.28,2.52,1.98,3.75c1.42-0.99,2.82-2,4.25-2.97c0.12,5.75-1.71,11.25-3.3,16.69 c-0.72,2.1,0.71,3.99,1.65,5.74c2.5-3.4,0.96-7.34,0.6-11.07c0.72-4.23,1.44-8.87,5.14-11.59c0.3,4.42,0.09,8.85-0.63,13.21 c0.63,0.09,1.9,0.26,2.54,0.34c2.06-5.99,5.409-11.51,6.06-17.94c-4.849-1.94-6.68-7.02-7.02-11.86c2.881,2.41,4.6,5.91,7.67,8.12 c1.119-3.03,1.9-6.17,3.029-9.19c1.811-1.58,3.221,0.99,4.16,2.3c0.17,9.25-3.479,17.9-5.26,26.84c0.051,4.02,0.311,8.05,0.02,12.09 c2.9-5.04,4.73-10.56,5.98-16.21c2.23-6.07,3.281-12.48,5.34-18.6c1.271-4.31,0.611-9.06,2.771-13.13 c1.52-4.92,1.729-10.17,2.959-15.17C139.76,17.437,140.051,11.716,141.1,6.126L141.1,6.126z"></path> <path fill="#313C6B" d="M187.23,27.146c1.279,0.86,2.539,1.78,3.779,2.7c-1.01,8.37-3.789,16.35-6.689,24.23 c-0.85,3.68-1.5,7.43-1.701,11.21c1.801-1.07,3.471-2.31,5.102-3.63c0.809,0.76,1.639,1.52,2.469,2.27 c-0.99,5-2.57,9.85-3.959,14.75c-0.5-0.11-1.52-0.34-2.031-0.46c-1.049,2.85-2.229,5.65-3.359,8.46c-0.061-1.49-0.15-2.97-0.27-4.45 c-4.65,9.14-5.541,19.49-7.301,29.44c-0.59,0.31-1.76,0.93-2.35,1.24c-0.67-0.26-2.02-0.77-2.699-1.02 c0.119-12.29,5.76-23.48,7.83-35.43c1.539-8.07,4.469-16,4.459-24.29c-6.039,10.82-8.82,23.08-13.42,34.53 c-2.84,6.33-5.23,12.88-8.77,18.87c-0.83-0.27-2.5-0.8-3.33-1.07c0.199-5.35,2.77-10.16,3.82-15.34 c0.809-3.79,1.119-7.68,1.479-11.54c-5.709,6.92-6.77,16.09-9.85,24.23c-0.77-1.39-1.51-2.79-2.26-4.18 c-1.73,2.14-3.459,4.27-5.199,6.4c-0.27-0.17-0.82-0.5-1.09-0.66c1.898-3.21,1.719-7.04,2.299-10.6c1.221-1.94,2.771-3.63,4.4-5.23 c0.711-0.11,2.109-0.31,2.811-0.41c2.889-4.33,3.48-9.87,7.01-13.87c2.061-0.57,4.26-0.91,6.09-2.08 c2.32-1.97,3.311-4.99,4.289-7.77c-0.068,1-0.209,3.01-0.279,4.01c1.67-0.13,3.381-0.66,3.951-2.41 c4.1-7.34,6.369-15.48,9.799-23.12C183.6,36.896,184.85,31.816,187.23,27.146L187.23,27.146z"></path> <path fill="#313C6B" d="M149.811,58.367c3.32-6.1,7.799-11.52,13.09-16.01c-3.17,4.58-5.781,9.52-9.17,13.95 c1.48-0.66,2.959-1.3,4.469-1.91c-1.18,3.1-2.898,5.93-4.41,8.86C152.52,61.577,151.16,59.977,149.811,58.367L149.811,58.367z"></path> <path fill="#323843" d="M158.41,73.296c0.91-7.16,4.35-13.77,8.5-19.58c-0.211,1.85-0.529,3.69-0.84,5.53 c0.83,1.35,3.25,2.44,2.719,4.2c-0.979,2.78-1.969,5.8-4.289,7.77C162.67,72.387,160.471,72.727,158.41,73.296L158.41,73.296z"></path> <path fill="#313C6B" d="M80.33,70.146c3.3-4.46,6.48-9.05,10.64-12.77c-0.64,2.22-1.52,4.42-1.51,6.77 c-0.06,5.01-1.48,9.86-2.87,14.62c-1.19-0.72-2.37-1.45-3.55-2.17c-0.61,1.08-1.22,2.17-1.81,3.27 C80.66,76.656,78.63,73.356,80.33,70.146L80.33,70.146z"></path> <path fill="#323843" d="M144.961,66.117c1.639-2.57,3.209-5.18,4.85-7.75c1.35,1.61,2.709,3.21,3.979,4.89 c-0.109,3.27-0.799,6.56-1.559,9.74c-2.33,4.53-3.07,9.57-3.641,14.58c-1.629,1.6-3.18,3.29-4.4,5.23 c-2.74,1.08-5.529,1.99-8.41,2.59c0.15,1.56,0.26,3.12,0.611,4.65c1.729,1.28,3.67,2.24,5.5,3.36c0.27,0.16,0.82,0.49,1.09,0.66 c1.74-2.13,3.469-4.26,5.199-6.4c0.75,1.39,1.49,2.79,2.26,4.18c-0.57,1.62-1.139,3.24-1.719,4.86 c12.41,5.36,21.92,15.15,32.699,22.97c2.67,1.91,5.301,3.9,7.77,6.07c3.83,3.26,7.49,6.77,10.16,11.07 c-2.08-0.02-4.15,0.061-6.23,0.129c-4.379-5.809-10.639-9.639-16.18-14.209c-7.959-6.43-15.689-13.23-24.539-18.44 c-10.52-5.97-21.84-10.33-33.291-14.13c0-1.42,0.01-2.85,0.051-4.27c0.439-1.64,0.939-3.26,1.43-4.88 c1.23,0.02,2.449,0.05,3.68,0.06c0.301,1.53,0.59,3.07,0.891,4.6c1.48,0.28,2.959,0.57,4.439,0.87c0.23-0.36,0.68-1.07,0.91-1.43 c3.35-5.22,7.891-9.72,13.211-12.92c-1.932-3.17-3.9-6.34-5.26-9.8c-0.721-4.24,0.039-8.52,0.76-12.7 c0.439,1.8,0.889,3.61,1.33,5.41C142.02,65.457,143.48,65.796,144.961,66.117L144.961,66.117z"></path> <path fill="#313C6B" d="M211.77,68.417c1.371,0.27,2.74,0.55,4.121,0.84c-1.541,8.39,0.189,16.82,0.32,25.24 c1.52,3.18,2.379,6.61,2.139,10.17c-0.379,17.9-0.289,35.82-1.369,53.689c-0.781,0.141-2.35,0.42-3.131,0.561 c-0.699-0.85-1.389-1.699-2.08-2.539c-0.33,0.639-0.99,1.92-1.32,2.549c-0.84-2.959-1.988-5.83-3.129-8.689 c0.469-0.471,0.93-0.939,1.4-1.41c-1.361-0.74-2.74-1.449-4.021-2.301c-0.568-3.949-0.109-7.949-0.17-11.929 c-2.479,1.2-4.74,2.99-7.469,3.59c-1.381-0.32-2.24-1.49-2.35-2.86c-0.721-3.68-2.16-7.16-3.701-10.55 c-0.369,3.69-0.619,7.42-1.82,10.97c-2.469-2.17-5.1-4.16-7.77-6.07c0.041-2.64,0.17-5.27,0.35-7.89c-1.73-0.33-3.449-0.64-5.17-1 c0.391-9.17,0.67-18.39,2.9-27.34c3.539,0.84,7.16,1.28,10.801,1.3c-0.691,4.71-1.781,9.38-1.82,14.16 c1.41-3.03,2.51-6.22,2.949-9.54c0.58-4.42,1.98-8.73,2.07-13.21c0.551-1.27,1.1-2.55,1.65-3.82c-0.861-0.74-1.711-1.47-2.531-2.25 c3.451-0.57,5.451-3.66,7.16-6.4c-0.74,6.2-3.959,12.22-2.689,18.55c1.07,0.83,2.221,1.54,3.34,2.3 c0.041,1.82,0.121,3.64,0.281,5.46c1.049-1.2,2.529-2.31,2.408-4.09c0.42-5.18,0.271-10.4,0.83-15.58 c1.852-0.01,3.691,0.08,5.541,0.18C209.77,76.396,210.98,72.437,211.77,68.417L211.77,68.417z"></path> <path fill="#323843" d="M81.23,79.867c0.59-1.1,1.2-2.19,1.81-3.27c1.18,0.72,2.36,1.45,3.55,2.17c-0.8,2.35-1.26,4.78-1.43,7.24 c0.71,0.15,2.12,0.43,2.83,0.58c1.43,0.54,2.86,1.08,4.3,1.62c-1.89,3.52-4.05,6.87-6.44,10.06c-2.14-1.4-4.28-2.79-6.42-4.18 c-0.87,2.13-1.76,4.24-2.62,6.38c-1.11-0.09-2.23-0.17-3.34-0.26c0-2.41,0.01-4.82-0.03-7.23 C79.04,91.406,79.66,84.537,81.23,79.867L81.23,79.867z"></path> <path fill="#323843" d="M184.199,78.216c0.512,0.12,1.531,0.35,2.031,0.46c-0.15,2.1-0.031,4.2,0.279,6.28 c1.74-2.36,3.221-4.89,4.779-7.36c0.33,0.62,1,1.87,1.33,2.49c0.82,0.78,1.67,1.51,2.531,2.25c-0.551,1.27-1.1,2.55-1.65,3.82 c-2.051,2.43-3.08,5.43-3.199,8.59c-3.641-0.02-7.262-0.46-10.801-1.3c0.449-2.26,0.859-4.52,1.34-6.77 C181.971,83.867,183.15,81.066,184.199,78.216L184.199,78.216z"></path> <path fill="#323843" d="M38.84,106.256c4.45-5.48,4.64-13.15,8.76-18.74c0.01,3.97-3.39,8.62,0.16,11.96c1.05-1.23,2-2.56,3.18-3.68 c1.89-1.16,3.84-2.21,5.77-3.29c1.87,8.16-1.08,16.57,1.49,24.63c-0.78,4.73-0.54,9.54-0.89,14.3c-2.3,2.79-4.87,5.65-8.53,6.54 c-0.04,0.87-0.07,1.75-0.1,2.62c3.66-2.45,7.32-4.9,11.14-7.09c5.66-3.29,10.21-8.38,16.44-10.68c2.16-1.12,4.06,0.83,5.84,1.78 c-6.37,5.55-13.94,9.45-20.71,14.46c-4.7,3.56-9.66,6.76-14.47,10.161c-5.63-0.111-11.27-0.221-16.89,0.109 c2.1-3,5.51-4.369,8.52-6.199c1.09-0.5,0.84-1.911,0.79-2.861c-1.08-6.39-3.51-12.72-8.13-17.4c-1.87,1.11-3.75,2.2-5.62,3.32 c-0.47-1.71-0.95-3.42-1.42-5.12c-1.04,0.61-2.07,1.22-3.11,1.84c-0.25,1.96-0.52,3.92-0.78,5.88c-0.72,0.04-1.44,0.09-2.16,0.13 c-1.33-4.11-1.07-8.49,1.73-11.92c-1.08-0.15-3.26-0.45-4.34-0.61c-0.22-4.37,3.26-7.88,2.56-12.34c4.02-1.66,4.47-6.4,6.97-9.47 c-1,3.87-4.25,7.54-2.97,11.72c1.13,1.2,2.46,2.26,3.97,2.97c3.03-0.29,3.48-3.95,4.95-6.03c-0.29,3.1-0.58,6.2-0.65,9.32 c0.4-0.26,1.19-0.78,1.59-1.03C34.35,109.937,36.78,108.316,38.84,106.256L38.84,106.256z"></path> <path fill="#313C6B" d="M33.64,99.667c-0.14-2.06,0.8-3.92,1.67-5.72c1.07,3.71,0.64,7.8,1.92,11.39c0.4,0.23,1.21,0.69,1.61,0.92 c-2.06,2.06-4.49,3.68-6.91,5.28C33.06,107.667,33.68,103.696,33.64,99.667L33.64,99.667z"></path> <path fill="#313C6B" d="M47.58,104.747c1.99-0.48,3.98-0.94,5.97-1.4c-0.16,3.15-0.63,6.27-1.49,9.31 C49.79,110.506,48.47,107.687,47.58,104.747L47.58,104.747z"></path> <path fill="#FFFFFF" d="M41.2,107.117c0.73-0.03,2.2-0.1,2.93-0.14c-0.69,2.09-1.58,4.1-2.81,5.93 C41.14,110.977,41.09,109.046,41.2,107.117L41.2,107.117z"></path> <path fill="#313C6B" d="M21.06,122.917c1.04-0.62,2.07-1.23,3.11-1.84c0.47,1.7,0.95,3.41,1.42,5.12c1.87-1.12,3.75-2.21,5.62-3.32 c4.62,4.68,7.05,11.01,8.13,17.4c0.05,0.95,0.3,2.36-0.79,2.861c-3.01,1.83-6.42,3.199-8.52,6.199c-3.6,0.311-7.2,0.551-10.8,0.869 c1.28-7.129-0.67-14.179-1.11-21.279c0.72-0.04,1.44-0.09,2.16-0.13C20.54,126.836,20.81,124.876,21.06,122.917L21.06,122.917z"></path> <path fill="#000101" d="M193.119,146.946c2.08-0.068,4.15-0.148,6.23-0.129c2.33-0.041,4.41,0.959,6.25,2.32 c-0.299,8.609-1.029,17.289-3.889,25.479c-1.201,3.92-1.941,7.951-2.531,12c-1.199,5.041-6.4,7.451-10.67,9.441 c-8.699,2.059-17.471,5.029-26.52,4.33c-8.76,0.129-17.689-0.221-26.1-2.871c-9.111-3.719-13.111-13.5-17.25-21.689 c-2.07-4.02-5.341-8.811-10.411-8.67c-2.11,1.42-3.68,3.65-3.97,6.221c-0.98,6.148-2.57,12.35-6.07,17.578 c-6.04,6.441-14.68,9.131-22.68,12.221c-4.64,1.791-9.67,1-14.51,1.121c-4.01-0.121-8.04,0.27-12.02-0.25 c-9.82-2.352-19.77-6.061-27.05-13.33c-2.04-1.801-2.37-4.631-3.02-7.121c-0.68-3.359-1.93-6.57-2.58-9.939 c-0.52-2.871-1.01-5.779-2.12-8.5c-3.27-4.871-1.85-14.291,5.02-14.951c3.6-0.318,7.2-0.559,10.8-0.869 c5.62-0.33,11.26-0.221,16.89-0.109c5.24,0.24,10.51-0.391,15.74,0.219c9.76,1.471,19.76,1.361,29.37,3.84 c6.91,1.621,12.43,7.791,19.96,6.852c6.891,0.398,11.18-6,17.141-8.25C149.801,145.237,171.76,147.467,193.119,146.946 L193.119,146.946z"></path> <path fill="#323843" d="M205.6,149.137c0.43,0.27,1.291,0.818,1.721,1.1c1.141,2.859,2.289,5.73,3.129,8.689 c0.771,4.029,0.012,8.57-3.889,10.68c2.559,9.23,1.029,18.801,0.58,28.191c0.059,9.209-2.711,18.1-5.17,26.889 c-1.432,7.861-7.98,13.32-13.881,18.09c-2.75,2.59-6.529,3.441-9.85,5.041c-3.6,1.469-6.83,3.959-10.791,4.42 c-6.979,1.141-13.209,5.16-20.34,5.5c-13.559,1.719-27.27,1.82-40.85,0.43c-9.37-1.25-18.47-3.91-27.85-5.1 c-7.03-1.531-14.41-1.9-21.08-4.76c-15.82-7.98-31.5-17.221-43.37-30.621c-3.09-3.92-7.56-7.139-8.71-12.25 c-1.69-6.99-2.18-14.359-0.84-21.439c1.91-5.59,5.1-10.66,8.85-15.199c1.02-0.971,1.05-2.33,0.95-3.641 c1.11,2.721,1.6,5.629,2.12,8.5c-2.57,2.971-5.21,6.1-6.25,9.971c-1.57,5.539-1.02,11.379-0.79,17.049 c0.04,5.891,3.86,10.859,7.81,14.859c4.41,3.941,8.06,8.74,13.02,12.041c10.23,7.699,21.33,14.609,33.65,18.35 c10.09,2.16,20.41,3.15,30.44,5.67c16.61,3.371,33.729,3.66,50.521,1.59c6.629-1.17,13.199-2.779,19.41-5.4 c3.84-1.699,8.049-2.35,11.859-4.139c6.18-2.68,11.98-6.43,16.49-11.461c7.629-10.85,9.939-24.359,10.721-37.34 c0.77-7.049,1.029-14.15,0.879-21.25c-0.59,0.26-1.779,0.76-2.379,1.02C204.57,166.426,205.301,157.747,205.6,149.137L205.6,149.137 z"></path> <path fill="#FFFFFF" d="M154.289,151.446c11.922-0.539,23.9-0.1,35.842-0.199c5.34,0.539,8.039,5.859,9.318,10.48 c0.512,3.779-1.439,7.27-1.83,10.969c-0.279,3.781-1.129,7.5-2.229,11.121c-0.461,1.73-2.33,2.469-3.701,3.369 c-3.43,1.98-6.709,4.381-10.629,5.311c-4.311,1.029-8.471,3.16-13.01,2.811c-8.551-0.141-17.131,0.469-25.66-0.301 c-8.221-2.539-13.221-10.279-16.631-17.689c-1.641-4.33-4.07-8.801-3.141-13.58c1.451-2.641,3.65-4.91,6.352-6.26 C136.859,153.596,145.68,152.467,154.289,151.446L154.289,151.446z"></path> <path fill="#323843" d="M22.47,157.077c5.28-2.061,11.12-3.08,16.8-2.551c-2.35,1.4-4.62,2.941-6.7,4.74 c-4.05,3.49-8.76,6.131-12.71,9.76C19.78,165.036,18.37,159.596,22.47,157.077L22.47,157.077z"></path> <path fill="#FFFFFF" d="M39.27,154.526c2.5-1.93,5.8-1.059,8.71-1.229c7.03,0.289,14.14-0.66,21.09,0.719 c8.6,0.84,17.58,1.27,25.45,5.189c2.28,1.9,5.41,4.102,4.91,7.471c0.16,3.791-0.72,7.5-1.13,11.24 c-0.85,8.689-8.01,15.631-16.11,18.08c-6.43,2.52-13.34,3.18-20.15,3.811c-8.98-1.16-18.08-2-26.76-4.711 c-7.76-3.15-11.23-11.35-13.96-18.66c-0.68-2.4-2.26-4.85-1.46-7.41c3.95-3.629,8.66-6.27,12.71-9.76 C34.65,157.467,36.92,155.926,39.27,154.526L39.27,154.526z"></path> <path fill="#313C6B" d="M201.711,174.616c0.6-0.26,1.789-0.76,2.379-1.02c0.15,7.1-0.109,14.201-0.879,21.25 c0.439-5.449,1.068-10.949,0.1-16.391c-1.85,2.461-3.08,5.291-4.131,8.16C199.77,182.567,200.51,178.536,201.711,174.616 L201.711,174.616z"></path> </svg> 